<svg data-name="Layer 1" xmlns="http://www.w3.org/2000/svg" viewBox="0 0 100 138"><defs><linearGradient id="a" x1="2.429" y1="123.719" x2="98.408" y2="27.74" gradientUnits="userSpaceOnUse"><stop offset="0" stop-color="#fff698"/><stop offset=".4" stop-color="#cfad67"/><stop offset=".6" stop-color="#ffefcf"/><stop offset=".694" stop-color="#feedcc"/><stop offset=".77" stop-color="#f9e7c2"/><stop offset=".839" stop-color="#f1dcb1"/><stop offset=".904" stop-color="#e6cd99"/><stop offset=".967" stop-color="#d8ba7b"/><stop offset="1" stop-color="#cfad67"/></linearGradient></defs><path d="M50 2.149a47.927 47.927 0 0147.857 48 47.857 47.857 0 11-81.7-33.938A47.474 47.474 0 0150 2.149M50 0a50.145 50.145 0 1050 50.145A50.073 50.073 0 0050 0zm-4.411 63.112c.015-.219.031-.467.063-.758a7.179 7.179 0 00-.353-3.121 7.244 7.244 0 00.62-1.7 4.177 4.177 0 00-.768-3.642 13.853 13.853 0 00-2.431-2.683 3.285 3.285 0 00-2.065-.493 9.491 9.491 0 00-5.761-.579 5.9 5.9 0 00-2.251.844 5.821 5.821 0 00-2.455.37 4.934 4.934 0 00-3.159 3.741c-.195.868-.5 2.6.168 3.579a5.392 5.392 0 00-.537 4.43 4.168 4.168 0 002.533 2.8 3.122 3.122 0 00.845.13 3.134 3.134 0 00.552 1.663c1.15 1.663 3.745 1.975 5.078 1.975a5.188 5.188 0 003.574-1.224 4.645 4.645 0 00.771-.89 3.154 3.154 0 00.789.12h.082a4.114 4.114 0 002.824-1.253c1.692-1.578 1.798-2.051 1.881-3.309zm-5.113-11.24h.024c.858.006 1.175.022 1.564.291a13.567 13.567 0 012.182 2.45 3.032 3.032 0 01.545 2.678 7.331 7.331 0 01-1.137 2.457 1.778 1.778 0 01-.133.17 5.653 5.653 0 00-.15-.732c.172-.774.759-4.069-1.294-5.414a15.066 15.066 0 00-3.151-1.6 4.413 4.413 0 011.549-.3zm-4.164 4.9h-.107c.136-.257.546-.275.843-.294 1.93-.126 1.81.024 2.692 1.844.524 1.081.7 1.445.261 2.517-.138.337-.595.6-1.306.75a3.049 3.049 0 00-2.383-4.814zm-1.318.257a3.054 3.054 0 00-1.813 2.93 1.7 1.7 0 01-.2-.262 4.227 4.227 0 01-.175-3.146 2.259 2.259 0 011.3-1.341 4.807 4.807 0 013.115-.429.554.554 0 01.374.509c-.2.007-.4.02-.613.034-.126.005-1.975-.007-1.989 1.702zm1.224.9a.659.659 0 010 1.318 1.812 1.812 0 00-1.739 1.319 1.9 1.9 0 011.739-2.637zm-3.658-3.074a2.809 2.809 0 00-.877 1.42 8.135 8.135 0 00-.223 1.443 2.675 2.675 0 00-1.222 1.229 2.558 2.558 0 00-.192.586 4.427 4.427 0 01-.056-2.653 3.8 3.8 0 011.064-1.78l.02-.019a4.585 4.585 0 011.37-.861c.124-.051.246-.1.365-.138a1.816 1.816 0 00-.249.773zm-1.024 4.216a3.015 3.015 0 002.187 2.488 3.038 3.038 0 002.459 1.307c.051 0 .216.017.457.024-1.889.755-4.331.409-5.159-1.453-.414-.937-.501-1.791.057-2.366zm4.681 2.641a.659.659 0 010-1.318 1.81 1.81 0 001.74-1.318 1.9 1.9 0 01-1.74 2.636zm3.71-5.5a2.153 2.153 0 00-1.189-.836 1.7 1.7 0 00-1.05-1.654 5.179 5.179 0 00-3.178.088 6.484 6.484 0 01.785-.584c1.809-1.161 5.169.858 6.156 1.5.3.2 1 .76.983 2.583a1.858 1.858 0 00-.658-.51 15.54 15.54 0 00-1.849-.582zm-4.85-4.938a10.562 10.562 0 013.145-.07 6.044 6.044 0 00-1 .551 3.818 3.818 0 00-2.546.5q-.276.177-.518.36a7.454 7.454 0 00-2.115.515l-.027.012a4.568 4.568 0 013.061-1.863zm-6.928 4.068a3.8 3.8 0 012.4-2.9 4.75 4.75 0 01.7-.208 5.64 5.64 0 00-.253.342 6.269 6.269 0 00-.847 1.786 4.939 4.939 0 00-1.217 2.025 9.765 9.765 0 00-.967 1.092 6.034 6.034 0 01.184-2.132zm-.4 7.369a4.777 4.777 0 01.932-4.245q.017.271.06.54a7.411 7.411 0 00-.356 2.335 6 6 0 001.015 3.411 3.061 3.061 0 01-1.655-2.036zm3.311 2.193a4.675 4.675 0 01-1.522-3.781 6.431 6.431 0 001.39 1.611 4.374 4.374 0 003.125 1.642 3.586 3.586 0 002.463 1.377 4.292 4.292 0 01-1.923.627 4.819 4.819 0 01-3.537-1.471zm7.414 2.679a4.424 4.424 0 01-3.436.9c-1.725-.149-2.93-.645-3.487-1.435a1.973 1.973 0 01-.253-.493 5.407 5.407 0 003.369.981 6.032 6.032 0 003.818-1.888l.083-.007c.375-.031.739-.06 1.092-.116a4.076 4.076 0 01-1.19 2.063zm0-3.095c-.344.028-.7.057-1.094.107a2.689 2.689 0 01-1.636-.266 5.842 5.842 0 003.237-1.629 2.679 2.679 0 002.084-1.429c.675-1.646.212-2.419-.373-3.631.219.072.442.152.647.236a2.667 2.667 0 01.861 1.4 4.044 4.044 0 01-.309 3.331c-1.034 1.693-1.881 1.761-3.419 1.886zm4.454 1.084a2.8 2.8 0 01-2.367.918 6.085 6.085 0 00.343-1.336 5.293 5.293 0 002.617-3.75 4.045 4.045 0 00.942-.815 6 6 0 01.047 1.632c-.035.317-.052.578-.067.809-.062.902-.002 1.13-1.518 2.547zm-6.511-19.04c.035.344.108 1.04.262 2 .09 0 .182-.006.271-.006a10.184 10.184 0 014.031.756c.136 0 .278.01.422.021 2.212-1.573 4.87-4.433 4.374-8.919 0 0-6.086 1.117-7.216 6.394q-.144-1.275-.2-2.566a41.381 41.381 0 01.863-10.306c.281-1.342.606-2.579.942-3.691 3.383-1.885 10.38-6.935 9.159-15.968 0 0-7.818 1.631-10.512 8.123a13.137 13.137 0 00-.7 7.187l.017.1a46.733 46.733 0 00-.95 3.736 44.06 44.06 0 00-.962 8.83 9.83 9.83 0 00-7.613-5.9s-.68 9.114 7.809 10.214zM71.4 99.387c-.025-.141-3.648-14.088-3-8.451-5.539-11.312-10.595-15.1-15.08-18.462-.807-.6-1.594-1.2-2.366-1.812 2.11-2.6 7.524-10.6 2.4-18.943 0 0-5.445 3.924-6.229 9.99 0 .259-.017.526-.048.8-.022.2-.035.375-.047.547a12.1 12.1 0 001.109 5.086 25.588 25.588 0 01-1.978-2.265 11.127 11.127 0 01-1.383 1.505 33.352 33.352 0 007.285 6.781 36.5 36.5 0 017.6 6.823c-6.9-6.147-17.01-2.863-17.01-2.863 6.046 12.33 17.98 7.053 19.592 6.269a55.346 55.346 0 013 4.989 85.418 85.418 0 014.36 10c.179.54.4.9.9.9s1.003-.281.895-.894zM8.872 120.463a.865.865 0 00.636-.265.922.922 0 00.278-.638v-7.952a.9.9 0 00-.278-.63.878.878 0 00-.636-.258h-.186v-.143h4.343l-.014.143h-.171a.9.9 0 00-.643.258.835.835 0 00-.272.63v7.952a.858.858 0 00.272.638.888.888 0 00.643.265h.171l.014.143H8.686v-.143zm19.828 0h.229v.143h-4.286v-.129h.214a.591.591 0 00.414-.2.5.5 0 00.143-.415l-.557-5.2-2.685 4.638a3.331 3.331 0 00-.543 1.59h-.143l-3.672-6.19-.557 5.158a.52.52 0 00.143.423.534.534 0 00.414.193h.214v.129h-2.985v-.143h.229a1.05 1.05 0 00.693-.243 1 1 0 00.35-.659l1.186-9.184h.128l4.429 7.307 4.257-7.307h.129l1.214 9.184a1.056 1.056 0 00.364.659 1.031 1.031 0 00.678.246zm10.614-7.02a3.075 3.075 0 01-.257 1.246 2.733 2.733 0 01-1.8 1.547 2.268 2.268 0 01-.714.129 3.208 3.208 0 01-1.814-.53v-.143a2.131 2.131 0 001.729-.7 2.744 2.744 0 00.079-3.245 1.681 1.681 0 00-1.336-.566h-.957v8.381a.859.859 0 00.271.638.888.888 0 00.643.265h.186v.143H31v-.143h.186a.865.865 0 00.636-.265.924.924 0 00.278-.638v-8.009a.756.756 0 00-.271-.595.948.948 0 00-.643-.236H31v-.143h4.771a4 4 0 012.629.745 2.658 2.658 0 01.914 2.119zm2.729 7.02a.865.865 0 00.636-.265.924.924 0 00.279-.638v-7.98a.8.8 0 00-.214-.545 1.037 1.037 0 00-.7-.315h-.186v-.143h5.472a5.183 5.183 0 001.157-.107 4.832 4.832 0 00.557-.151v2.507l-.143-.014v-.158a1.331 1.331 0 00-.657-1.261 1.536 1.536 0 00-.743-.2H45.1v4.169h1.886a1.214 1.214 0 00.871-.365 1.191 1.191 0 00.343-.867V114h.143v3.31H48.2v-.11a1.186 1.186 0 00-1.186-1.232H45.1v4.026h1.871a2.607 2.607 0 001.75-.6 3.556 3.556 0 001.05-1.7h.143l-.657 2.923h-7.4v-.143zm14.286-9.255h-.657v8.353a.923.923 0 00.279.638.864.864 0 00.636.265h.186v.143h-4.344v-.143h.186a.868.868 0 00.786-.444 1.006 1.006 0 00.128-.444v-7.952a.924.924 0 00-.278-.638.866.866 0 00-.636-.265h-.186v-.143h4.9a4.319 4.319 0 012.343.6 2.152 2.152 0 01.771.838 2.986 2.986 0 01.286 1.4 2.752 2.752 0 01-.6 1.669 2.355 2.355 0 01-1.743.917 2.828 2.828 0 011.457 1.261 10.878 10.878 0 002.286 2.952 1.831 1.831 0 00.929.243v.143h-1.4a5.577 5.577 0 01-2.064-.33 2.56 2.56 0 01-1.293-1.16q-.272-.473-1.186-2.45-.4-.874-.972-.96v-.143h.443a1.788 1.788 0 001.136-.387 2.03 2.03 0 00.664-1.261 2.715 2.715 0 00.057-.473 2.5 2.5 0 00-.471-1.7 1.605 1.605 0 00-1.214-.537zm8.314 9.255a.865.865 0 00.636-.265.924.924 0 00.279-.638v-7.952a.9.9 0 00-.279-.63.877.877 0 00-.636-.258h-.186v-.143H68.8l-.014.143h-.171a.9.9 0 00-.643.258.835.835 0 00-.271.63v7.952a.859.859 0 00.271.638.888.888 0 00.643.265h.171l.014.143h-4.343v-.143zm16.757 0h.128v.143h-4.557v-.143h.129a.55.55 0 00.464-.193.607.607 0 00.15-.365.9.9 0 00-.071-.344l-.7-1.762H73.6l-.743 1.762a.982.982 0 00-.071.351.586.586 0 00.157.358.571.571 0 00.472.193h.114v.143h-3.058v-.143h.129a1.25 1.25 0 00.657-.2 1.522 1.522 0 00.543-.6l3.3-7.493a7.588 7.588 0 00.714-1.877h.129l4.243 9.341a1.557 1.557 0 00.543.623 1.242 1.242 0 00.671.206zm-7.557-3.263H76.7l-1.386-3.524zm9.6 3.267a.865.865 0 00.636-.265.924.924 0 00.279-.638v-7.937a.924.924 0 00-.279-.638.866.866 0 00-.636-.265h-.186v-.143H87.6l-.014.143h-.171a.889.889 0 00-.643.265.859.859 0 00-.271.638v8.367h1.871a2.607 2.607 0 001.75-.6 3.556 3.556 0 001.05-1.7h.143l-.657 2.923h-7.4v-.143zM19.222 138a5.444 5.444 0 01-3.922-1.411 5.642 5.642 0 010-7.615 5.581 5.581 0 014.007-1.4 10.886 10.886 0 012.214.222 7.166 7.166 0 011.729.552l.028 2.464h-.128a3.4 3.4 0 00-1.271-2.013 3.67 3.67 0 00-2.143-.623 3.12 3.12 0 00-2.657 1.239 5.545 5.545 0 00-.929 3.4 5.82 5.82 0 00.85 3.365 2.762 2.762 0 002.407 1.218 2.809 2.809 0 001.886-.645 1.971 1.971 0 00.543-.773v-2.192a.6.6 0 00-.193-.48.824.824 0 00-.55-.165h-.229V133h4.014v.143h-.214a.772.772 0 00-.529.165.608.608 0 00-.186.48v2.364a4.543 4.543 0 01-1.843 1.289 7.17 7.17 0 01-2.884.559zm17.814-.344h.128v.143h-4.556v-.143h.128a.55.55 0 00.464-.193.607.607 0 00.15-.365.9.9 0 00-.071-.344l-.7-1.762h-3.343l-.743 1.762a.982.982 0 00-.071.351.586.586 0 00.157.358.571.571 0 00.472.193h.114v.143h-3.057v-.143h.128a1.25 1.25 0 00.657-.2 1.522 1.522 0 00.543-.6l3.3-7.493a7.588 7.588 0 00.714-1.877h.129l4.243 9.341a1.557 1.557 0 00.543.623 1.242 1.242 0 00.671.206zm-7.557-3.267h2.857l-1.386-3.524zm13.357-5.989h-.657v8.353a.923.923 0 00.279.638.864.864 0 00.636.265h.186v.143h-4.344v-.143h.186a.868.868 0 00.786-.444 1.006 1.006 0 00.128-.444v-7.952a.924.924 0 00-.278-.638.866.866 0 00-.636-.265h-.186v-.143h4.9a4.319 4.319 0 012.343.6 2.152 2.152 0 01.771.838 2.986 2.986 0 01.286 1.4 2.752 2.752 0 01-.6 1.669 2.355 2.355 0 01-1.743.917 2.828 2.828 0 011.457 1.261 10.878 10.878 0 002.286 2.952 1.831 1.831 0 00.929.243v.143h-1.4a5.577 5.577 0 01-2.064-.33 2.56 2.56 0 01-1.293-1.16q-.272-.473-1.186-2.45-.4-.874-.972-.96v-.143h.443a1.788 1.788 0 001.136-.387 2.03 2.03 0 00.664-1.261 2.715 2.715 0 00.057-.473 2.5 2.5 0 00-.471-1.7 1.605 1.605 0 00-1.214-.537zm17.314.716a5.307 5.307 0 010 7.335 5.7 5.7 0 01-4 1.347h-5.186v-.143h.186a.865.865 0 00.636-.265.924.924 0 00.279-.638v-8.022a.732.732 0 00-.279-.58.955.955 0 00-.636-.236h-.186v-.143h5.186a5.7 5.7 0 014 1.346zm-4.186 8.066a3 3 0 001.779-.53 3.323 3.323 0 001.15-1.526 5.767 5.767 0 00.4-2.171 7.349 7.349 0 00-.236-2 4.273 4.273 0 00-.664-1.4 2.863 2.863 0 00-2.429-1.189h-1.757v8.811zm8.3.473a.865.865 0 00.636-.265.924.924 0 00.279-.638v-7.98a.8.8 0 00-.214-.545 1.037 1.037 0 00-.7-.315h-.186v-.143h5.471a5.183 5.183 0 001.157-.107 4.832 4.832 0 00.557-.151v2.507l-.143-.014v-.158a1.331 1.331 0 00-.657-1.261 1.536 1.536 0 00-.743-.2h-2.4v4.169h1.886a1.214 1.214 0 00.871-.365 1.191 1.191 0 00.343-.867v-.129h.143v3.31h-.143v-.115a1.186 1.186 0 00-1.186-1.232h-1.913v4.026h1.871a2.607 2.607 0 001.75-.6 3.556 3.556 0 001.05-1.7h.143l-.657 2.923h-7.4v-.143zm21.414-9.743a.829.829 0 00-.757.43.907.907 0 00-.129.43v7.393a8.632 8.632 0 00.129 1.619l.043.215h-.128l-7.214-6.891v5.692a.818.818 0 00.257.609.849.849 0 00.614.251h.271v.143h-4.328v-.143h.257a.865.865 0 00.628-.251.834.834 0 00.257-.623v-7.436a8.078 8.078 0 00-.129-1.576l-.028-.215h.129l7.214 6.891v-5.659a.887.887 0 00-.271-.623.85.85 0 00-.614-.251h-.257v-.143h4.328v.143z" fill="url(#a)"/></svg>